<svg width="20" height="20" viewBox="0 0 20 20" fill="none" xmlns="http://www.w3.org/2000/svg">
<g clip-path="url(#clip0_762_2685)">
<path d="M15.6489 0H4.35105C3.35538 0 2.50977 0.803035 2.50977 1.84128V18.547C2.5127 19.8648 4.12228 20.4831 5.03736 19.558L9.34376 15.2529C9.68887 14.8928 10.311 14.8928 10.6561 15.2529L14.9625 19.558C15.878 20.4834 17.4874 19.8642 17.4901 18.547V1.84128C17.4901 0.803035 16.6445 0 15.6489 0ZM16.3182 18.547C16.3167 18.826 15.9699 18.9181 15.7905 18.7286C14.9296 17.8664 12.4745 15.412 11.4856 14.425C10.7077 13.6114 9.29337 13.6112 8.51581 14.4234C7.8327 15.1052 6.49556 16.442 5.44149 17.4957L4.21522 18.7215C4.03852 18.9089 3.68736 18.8464 3.6817 18.5576V1.84128C3.6817 1.46696 3.98512 1.17197 4.35105 1.17197H15.6488C16.0142 1.17197 16.3182 1.46649 16.3182 1.84128V18.547Z" fill="#548CC9"/>
</g>
<defs>
<clipPath id="clip0_762_2685">
<rect width="20" height="20" fill="white"/>
</clipPath>
</defs>
</svg>
